<svg xmlns="http://www.w3.org/2000/svg" width="512" height="512" fill="none"><g clip-path="url(#a)"><rect width="512" height="512" fill="#fff" rx="96"/><path fill="#E73145" d="M379.8 212H300v206h114l-34.2-206Z"/><path fill="#FCD116" d="M211 212h89v206h-89z"/><path fill="#2659BC" d="M131.2 212H211v206H97l34.2-206Z"/><path stroke="#333" stroke-linecap="round" stroke-linejoin="round" stroke-width="36" d="M192 132.5a63.497 63.497 0 0 0 63.5 63.5 63.497 63.497 0 0 0 63.5-63.5 63.499 63.499 0 1 0-127 0Z"/><path stroke="#333" stroke-linecap="round" stroke-linejoin="round" stroke-width="36" d="M146.771 196H365.23a21.127 21.127 0 0 1 13.551 4.918 21.186 21.186 0 0 1 7.258 12.472l34.619 190.637a21.204 21.204 0 0 1-4.57 17.364A21.148 21.148 0 0 1 399.849 429H112.151a21.15 21.15 0 0 1-16.24-7.609 21.202 21.202 0 0 1-4.57-17.364l34.62-190.637a21.186 21.186 0 0 1 7.258-12.472A21.128 21.128 0 0 1 146.771 196Z"/></g><defs><clipPath id="a"><path fill="#fff" d="M0 0h512v512H0z"/></clipPath></defs></svg>